<svg xmlns="http://www.w3.org/2000/svg" width="512" height="185" viewBox="0 0 512 185"
     id="_-Rwopz5LhOUct9h_LfMNk" class="fl-svgdocument" x="0" y="0" style="overflow: hidden;">
    <defs id="_6XuM8WaYVHjcM9boD1rGX"
          transform="matrix(1.019417405128479, 0, 0, 1.019417405128479, -4.970864772796631, -9.94174861907959)"></defs>
    <path id="_kGLgf25xnU0MtDlM7mFpA"
          d="M50,5c-25,10-30,5-30,5L10,40l10,25l30,30l0,0l0,0l30-30l10-25L80,10C80,10,75,15,50,5z" stroke="none"
          fill="#03081a"
          transform="matrix(1.9575402736663818, 0, 0, 1.9575402736663818, 13.210607528686523, -9.787701606750488)"></path>
    <path id="_Audeij6E7jUyKCGzlkNZk"
          d="M82.756,56.938c0.034-0.082,0.038-0.167,0.028-0.25c-0.001-0.01,0.005-0.019,0.004-0.029l-3.823-21.771l2.162-26.853  c0.016-0.198-0.087-0.387-0.262-0.481c-0.175-0.093-0.389-0.076-0.546,0.048L61.954,22.078H38.046L19.682,7.602  c-0.156-0.123-0.371-0.141-0.546-0.048c-0.175,0.094-0.278,0.283-0.262,0.481l2.162,26.853l-3.823,21.771  c-0.002,0.01,0.005,0.019,0.004,0.029c-0.01,0.083-0.007,0.168,0.028,0.25c0.001,0.002,0.003,0.002,0.003,0.004  c0.022,0.052,0.069,0.088,0.108,0.13c0.028,0.03,0.046,0.07,0.08,0.092c0.001,0.001,0.002,0.003,0.003,0.004l15.993,10.069  l6.047,19.003c0.004,0.013,0.018,0.021,0.023,0.033c0.022,0.055,0.059,0.098,0.099,0.142c0.019,0.021,0.026,0.051,0.048,0.069  l7.667,5.917c0.088,0.067,0.195,0.104,0.306,0.104h4.755c0.11,0,0.218-0.037,0.306-0.104l7.667-5.917  c0.023-0.018,0.029-0.048,0.048-0.069c0.041-0.044,0.077-0.087,0.099-0.142c0.005-0.013,0.019-0.02,0.023-0.033l6.047-19.003  l15.993-10.069c0.001-0.001,0.002-0.003,0.003-0.004c0.034-0.022,0.052-0.062,0.08-0.092c0.039-0.042,0.086-0.078,0.108-0.13  C82.753,56.94,82.755,56.939,82.756,56.938z M66.284,66.234l-7.545-10.788l-0.008-0.128l9.397-3.948l13.085,5.465L66.284,66.234z   M54.412,89.804L50.5,87.823v-1.318h1.877c0.093,0,0.185-0.026,0.264-0.075l3.371-2.092l3.137,1.811L54.412,89.804z M40.852,86.149  l3.137-1.811l3.371,2.092c0.079,0.049,0.17,0.075,0.264,0.075H49.5v1.318l-3.912,1.981L40.852,86.149z M18.787,56.835l13.085-5.465  l9.397,3.948l-0.008,0.128l-7.545,10.788L18.787,56.835z M67.75,50.445l-9.668,4.062l-1.461-2.089l1.823-5.215l13.208-5.676  L67.75,50.445z M43.439,54.078l0.058,29.389l-2.988,1.725l1.734-29.404L43.439,54.078z M41.614,45.131l7.845,3.663l-3.821,30.889  l-1.145,2.109l-0.058-29.298c0-0.017-0.007-0.033-0.008-0.049c-0.002-0.024-0.006-0.046-0.012-0.069  c-0.004-0.015-0.003-0.031-0.008-0.046l-1.98-5.665c-0.046-0.132-0.146-0.239-0.275-0.294l-7.462-3.207L41.614,45.131z M50,52.567  l3.312,26.772h-6.624L50,52.567z M58.386,45.131l6.922-1.967l-7.461,3.207c-0.129,0.055-0.229,0.162-0.275,0.294l-1.98,5.665  c-0.005,0.015-0.004,0.031-0.008,0.046c-0.006,0.023-0.009,0.045-0.012,0.069c-0.002,0.017-0.008,0.033-0.008,0.049l-0.058,29.298  l-1.145-2.109l-3.821-30.889L58.386,45.131z M52.973,80.339L50,85.066l-2.973-4.727H52.973z M46.154,80.828l2.941,4.677h-1.33  l-3.103-1.926L46.154,80.828z M53.846,80.828l1.492,2.751l-3.103,1.926h-1.33L53.846,80.828z M56.561,54.078l1.196,1.71  l1.734,29.404l-2.988-1.725L56.561,54.078z M72.359,40.121l-13.517,3.841l3.634-20.493l15.216,11.489L72.359,40.121z M57.764,44.318  L50,47.943l-7.764-3.625l-3.767-21.24h23.062L57.764,44.318z M41.157,43.962L27.64,40.121l-5.333-5.163l15.216-11.489L41.157,43.962  z M41.556,47.203l1.823,5.215l-1.461,2.089l-9.668-4.062l-3.902-8.918L41.556,47.203z M41.149,57.352L39.615,83.37l-5.211-16.375  L41.149,57.352z M58.851,57.352l6.745,9.643L60.385,83.37L58.851,57.352z M81.644,55.931L68.79,50.563l4.246-9.704l5.096-4.932  L81.644,55.931z M78.035,33.964L62.946,22.57L80.037,9.097L78.035,33.964z M19.963,9.097L37.054,22.57l-15.09,11.394L19.963,9.097z   M21.869,35.926l5.096,4.933l4.246,9.703l-12.855,5.369L21.869,35.926z M52.207,91.505h-4.414l-1.327-1.024L50,88.691l3.534,1.79  L52.207,91.505z"
          stroke="none" fill="#eb3434"
          transform="matrix(1.4902427196502686, 0, 0, 1.4902427196502686, 36.574886322021484, 13.577329635620117)"></path>
    <path text="IT animals" text-anchor="middle" font-size="100" letter-spacing="5" side="left" offset="0.5" dx="0"
          dy="0" space="preserve" href="" font-family="Montserrat" font-scale="contain"
          transform="matrix(0.473981112241745, 0, 0, 0.473981112241745, 343.2287902832031, 106.55085754394531)" x="0"
          y="0" fill="#03081a" font-weight="700" data-fl-textpath="" id="_sEa_x-9MUDUhwf90i4waY"
          d="M-281 0L-281-70L-264.8-70L-264.8 0L-281 0ZM-228.7 0L-228.7-56.8L-251.1-56.8L-251.1-70L-190.1-70L-190.1-56.8L-212.5-56.8L-212.5 0L-228.7 0ZM-122.49999999999997-54.6Q-109.99999999999997-54.6 -103.29999999999998-48.65Q-96.59999999999998-42.7 -96.59999999999998-30.7L-96.59999999999998-30.7L-96.59999999999998 0L-111.19999999999997 0L-111.19999999999997-6.7Q-115.59999999999998 0.8 -127.59999999999998 0.8L-127.59999999999998 0.8Q-133.79999999999998 0.8 -138.34999999999997-1.3Q-142.89999999999998-3.4 -145.29999999999998-7.1Q-147.7-10.8 -147.7-15.5L-147.7-15.5Q-147.7-23 -142.04999999999998-27.3Q-136.39999999999998-31.6 -124.59999999999998-31.6L-124.59999999999998-31.6L-112.19999999999997-31.6Q-112.19999999999997-36.7 -115.29999999999998-39.45Q-118.39999999999998-42.2 -124.59999999999998-42.2L-124.59999999999998-42.2Q-128.89999999999998-42.2 -133.04999999999998-40.85Q-137.2-39.5 -140.09999999999997-37.2L-140.09999999999997-37.2L-145.7-48.1Q-141.29999999999998-51.2 -135.14999999999998-52.9Q-128.99999999999997-54.6 -122.49999999999997-54.6L-122.49999999999997-54.6ZM-123.69999999999997-9.7Q-119.69999999999997-9.7 -116.59999999999998-11.55Q-113.49999999999997-13.4 -112.19999999999997-17L-112.19999999999997-17L-112.19999999999997-22.5L-122.89999999999998-22.5Q-132.49999999999997-22.5 -132.49999999999997-16.2L-132.49999999999997-16.2Q-132.49999999999997-13.2 -130.14999999999998-11.45Q-127.79999999999998-9.7 -123.69999999999997-9.7L-123.69999999999997-9.7ZM-44.799999999999976-54.6Q-34.799999999999976-54.6 -28.649999999999977-48.6Q-22.49999999999997-42.6 -22.49999999999997-30.8L-22.49999999999997-30.8L-22.49999999999997 0L-38.09999999999997 0L-38.09999999999997-28.4Q-38.09999999999997-34.8 -40.89999999999998-37.95Q-43.699999999999974-41.1 -48.99999999999997-41.1L-48.99999999999997-41.1Q-54.89999999999998-41.1 -58.39999999999998-37.45Q-61.89999999999998-33.8 -61.89999999999998-26.6L-61.89999999999998-26.6L-61.89999999999998 0L-77.49999999999997 0L-77.49999999999997-53.8L-62.59999999999997-53.8L-62.59999999999997-47.5Q-59.49999999999997-50.9 -54.89999999999998-52.75Q-50.299999999999976-54.6 -44.799999999999976-54.6L-44.799999999999976-54.6ZM-3.3999999999999657 0L-3.3999999999999657-53.8L 12.200000000000035-53.8L 12.200000000000035 0L-3.3999999999999657 0ZM 4.400000000000034-61.3Q 0.1000000000000334-61.3 -2.599999999999966-63.8Q-5.299999999999966-66.3 -5.299999999999966-70L-5.299999999999966-70Q-5.299999999999966-73.7 -2.599999999999966-76.2Q 0.1000000000000334-78.7  4.400000000000034-78.7L 4.400000000000034-78.7Q 8.700000000000035-78.7  11.400000000000034-76.3Q 14.100000000000033-73.9  14.100000000000033-70.3L 14.100000000000033-70.3Q 14.100000000000033-66.4  11.400000000000034-63.85Q 8.700000000000035-61.3  4.400000000000034-61.3L 4.400000000000034-61.3ZM 100.60000000000004-54.6Q 110.70000000000005-54.6  116.65000000000005-48.65Q 122.60000000000004-42.7  122.60000000000004-30.8L 122.60000000000004-30.8L 122.60000000000004 0L 107.00000000000004 0L 107.00000000000004-28.4Q 107.00000000000004-34.8  104.35000000000004-37.95Q 101.70000000000005-41.1  96.80000000000004-41.1L 96.80000000000004-41.1Q 91.30000000000004-41.1  88.10000000000005-37.55Q 84.90000000000003-34  84.90000000000003-27L 84.90000000000003-27L 84.90000000000003 0L 69.30000000000004 0L 69.30000000000004-28.4Q 69.30000000000004-41.1  59.100000000000044-41.1L 59.100000000000044-41.1Q 53.700000000000045-41.1  50.50000000000004-37.55Q 47.30000000000004-34  47.30000000000004-27L 47.30000000000004-27L 47.30000000000004 0L 31.700000000000042 0L 31.700000000000042-53.8L 46.600000000000044-53.8L 46.600000000000044-47.6Q 49.600000000000044-51  53.950000000000045-52.8Q 58.30000000000004-54.6  63.50000000000004-54.6L 63.50000000000004-54.6Q 69.20000000000005-54.6  73.80000000000004-52.35Q 78.40000000000003-50.1  81.20000000000005-45.8L 81.20000000000005-45.8Q 84.50000000000004-50  89.55000000000004-52.3Q 94.60000000000004-54.6  100.60000000000004-54.6L 100.60000000000004-54.6ZM 163.30000000000004-54.6Q 175.80000000000004-54.6  182.50000000000003-48.65Q 189.20000000000005-42.7  189.20000000000005-30.7L 189.20000000000005-30.7L 189.20000000000005 0L 174.60000000000002 0L 174.60000000000002-6.7Q 170.20000000000005 0.8  158.20000000000005 0.8L 158.20000000000005 0.8Q 152.00000000000003 0.8  147.45000000000005-1.3Q 142.90000000000003-3.4  140.50000000000003-7.1Q 138.10000000000002-10.8  138.10000000000002-15.5L 138.10000000000002-15.5Q 138.10000000000002-23  143.75000000000003-27.3Q 149.40000000000003-31.6  161.20000000000005-31.6L 161.20000000000005-31.6L 173.60000000000002-31.6Q 173.60000000000002-36.7  170.50000000000003-39.45Q 167.40000000000003-42.2  161.20000000000005-42.2L 161.20000000000005-42.2Q 156.90000000000003-42.2  152.75000000000003-40.85Q 148.60000000000002-39.5  145.70000000000005-37.2L 145.70000000000005-37.2L 140.10000000000002-48.1Q 144.50000000000003-51.2  150.65000000000003-52.9Q 156.80000000000004-54.6  163.30000000000004-54.6L 163.30000000000004-54.6ZM 162.10000000000002-9.7Q 166.10000000000002-9.7  169.20000000000005-11.55Q 172.30000000000004-13.4  173.60000000000002-17L 173.60000000000002-17L 173.60000000000002-22.5L 162.90000000000003-22.5Q 153.30000000000004-22.5  153.30000000000004-16.2L 153.30000000000004-16.2Q 153.30000000000004-13.2  155.65000000000003-11.45Q 158.00000000000003-9.7  162.10000000000002-9.7L 162.10000000000002-9.7ZM 208.3 0L 208.3-74.2L 223.90000000000003-74.2L 223.90000000000003 0L 208.3 0ZM 261.5 0.8Q 254.79999999999998 0.8  248.39999999999998-0.85Q 242-2.5  238.2-5L 238.2-5L 243.39999999999998-16.2Q 247-13.9  252.1-12.45Q 257.2-11  262.09999999999997-11L 262.09999999999997-11Q 272-11  272-15.9L 272-15.9Q 272-18.2  269.3-19.2Q 266.59999999999997-20.2  261-20.9L 261-20.9Q 254.39999999999998-21.9  250.1-23.2Q 245.79999999999998-24.5  242.64999999999998-27.8Q 239.5-31.1  239.5-37.2L 239.5-37.2Q 239.5-42.3  242.45-46.25Q 245.39999999999998-50.2  251.04999999999998-52.4Q 256.7-54.6  264.4-54.6L 264.4-54.6Q 270.09999999999997-54.6  275.75-53.35Q 281.4-52.1  285.09999999999997-49.9L 285.09999999999997-49.9L 279.9-38.8Q 272.8-42.8  264.4-42.8L 264.4-42.8Q 259.4-42.8  256.9-41.4Q 254.39999999999998-40  254.39999999999998-37.8L 254.39999999999998-37.8Q 254.39999999999998-35.3  257.09999999999997-34.3Q 259.8-33.3  265.7-32.4L 265.7-32.4Q 272.3-31.3  276.5-30.05Q 280.7-28.8  283.8-25.5Q 286.9-22.2  286.9-16.3L 286.9-16.3Q 286.9-11.3  283.9-7.4Q 280.9-3.5  275.15-1.35Q 269.4 0.8  261.5 0.8L 261.5 0.8Z"></path>
</svg>